<svg width="381" height="75" viewBox="0 0 381 75" fill="none" xmlns="http://www.w3.org/2000/svg">
<g clip-path="url(#clip0_0_310)">
<path d="M61.5867 70L59.7327 57.4H61.6767L63.1887 68.686H63.4767L65.4207 57.4H68.8227L70.7667 68.686H71.0547L72.5487 57.4H74.4927L72.6387 70H69.2367L67.2567 58.552H66.9687L65.0067 70H61.5867ZM80.3598 70.252C79.4598 70.252 78.6738 70.066 78.0018 69.694C77.3298 69.31 76.8018 68.776 76.4178 68.092C76.0458 67.396 75.8598 66.592 75.8598 65.68V65.464C75.8598 64.54 76.0458 63.736 76.4178 63.052C76.7898 62.356 77.3058 61.822 77.9658 61.45C78.6378 61.066 79.4118 60.874 80.2878 60.874C81.1398 60.874 81.8838 61.066 82.5198 61.45C83.1678 61.822 83.6718 62.344 84.0318 63.016C84.3918 63.688 84.5718 64.474 84.5718 65.374V66.076H77.7498C77.7738 66.856 78.0318 67.48 78.5238 67.948C79.0278 68.404 79.6518 68.632 80.3958 68.632C81.0918 68.632 81.6138 68.476 81.9618 68.164C82.3218 67.852 82.5978 67.492 82.7898 67.084L84.3198 67.876C84.1518 68.212 83.9058 68.566 83.5818 68.938C83.2698 69.31 82.8558 69.622 82.3398 69.874C81.8238 70.126 81.1638 70.252 80.3598 70.252ZM77.7678 64.654H82.6818C82.6338 63.982 82.3938 63.46 81.9618 63.088C81.5298 62.704 80.9658 62.512 80.2698 62.512C79.5738 62.512 79.0038 62.704 78.5598 63.088C78.1278 63.46 77.8638 63.982 77.7678 64.654ZM86.3118 62.26V61.198H86.9238C87.4158 61.198 87.6618 60.952 87.6618 60.46V59.884H87.3918C86.9718 59.884 86.6238 59.758 86.3478 59.506C86.0718 59.254 85.9338 58.936 85.9338 58.552C85.9338 58.132 86.0718 57.796 86.3478 57.544C86.6238 57.28 86.9718 57.148 87.3918 57.148C87.8118 57.148 88.1538 57.286 88.4178 57.562C88.6938 57.826 88.8318 58.174 88.8318 58.606V60.478C88.8318 61.666 88.2378 62.26 87.0498 62.26H86.3118ZM93.2677 70L90.2797 61.126H92.2417L94.5997 68.632H94.8877L97.2457 61.126H99.2077L96.2197 70H93.2677ZM104.776 70.252C103.876 70.252 103.09 70.066 102.418 69.694C101.746 69.31 101.218 68.776 100.834 68.092C100.462 67.396 100.276 66.592 100.276 65.68V65.464C100.276 64.54 100.462 63.736 100.834 63.052C101.206 62.356 101.722 61.822 102.382 61.45C103.054 61.066 103.828 60.874 104.704 60.874C105.556 60.874 106.3 61.066 106.936 61.45C107.584 61.822 108.088 62.344 108.448 63.016C108.808 63.688 108.988 64.474 108.988 65.374V66.076H102.166C102.19 66.856 102.448 67.48 102.94 67.948C103.444 68.404 104.068 68.632 104.812 68.632C105.508 68.632 106.03 68.476 106.378 68.164C106.738 67.852 107.014 67.492 107.206 67.084L108.736 67.876C108.568 68.212 108.322 68.566 107.998 68.938C107.686 69.31 107.272 69.622 106.756 69.874C106.24 70.126 105.58 70.252 104.776 70.252ZM102.184 64.654H107.098C107.05 63.982 106.81 63.46 106.378 63.088C105.946 62.704 105.382 62.512 104.686 62.512C103.99 62.512 103.42 62.704 102.976 63.088C102.544 63.46 102.28 63.982 102.184 64.654ZM118.561 70.252C117.925 70.252 117.355 70.144 116.851 69.928C116.359 69.712 115.963 69.394 115.663 68.974C115.375 68.554 115.231 68.044 115.231 67.444C115.231 66.832 115.375 66.328 115.663 65.932C115.963 65.524 116.365 65.218 116.869 65.014C117.385 64.81 117.967 64.708 118.615 64.708H121.315V64.132C121.315 63.616 121.159 63.202 120.847 62.89C120.535 62.578 120.055 62.422 119.407 62.422C118.771 62.422 118.285 62.572 117.949 62.872C117.613 63.172 117.391 63.562 117.283 64.042L115.555 63.484C115.699 63.004 115.927 62.572 116.239 62.188C116.563 61.792 116.989 61.474 117.517 61.234C118.045 60.994 118.681 60.874 119.425 60.874C120.577 60.874 121.483 61.168 122.143 61.756C122.803 62.344 123.133 63.178 123.133 64.258V67.912C123.133 68.272 123.301 68.452 123.637 68.452H124.393V70H123.007C122.587 70 122.245 69.892 121.981 69.676C121.717 69.46 121.585 69.166 121.585 68.794V68.74H121.315C121.219 68.92 121.075 69.13 120.883 69.37C120.691 69.61 120.409 69.82 120.037 70C119.665 70.168 119.173 70.252 118.561 70.252ZM118.831 68.722C119.575 68.722 120.175 68.512 120.631 68.092C121.087 67.66 121.315 67.072 121.315 66.328V66.148H118.723C118.231 66.148 117.835 66.256 117.535 66.472C117.235 66.676 117.085 66.982 117.085 67.39C117.085 67.798 117.241 68.122 117.553 68.362C117.865 68.602 118.291 68.722 118.831 68.722ZM129.657 70.252C128.925 70.252 128.247 70.072 127.623 69.712C126.999 69.352 126.495 68.836 126.111 68.164C125.739 67.48 125.553 66.658 125.553 65.698V65.428C125.553 64.48 125.739 63.664 126.111 62.98C126.483 62.296 126.981 61.774 127.605 61.414C128.229 61.054 128.913 60.874 129.657 60.874C130.233 60.874 130.713 60.946 131.097 61.09C131.493 61.234 131.817 61.42 132.069 61.648C132.321 61.864 132.513 62.092 132.645 62.332H132.933V57.4H134.787V70H132.969V68.74H132.681C132.453 69.124 132.105 69.472 131.637 69.784C131.181 70.096 130.521 70.252 129.657 70.252ZM130.179 68.632C130.983 68.632 131.643 68.374 132.159 67.858C132.687 67.342 132.951 66.604 132.951 65.644V65.482C132.951 64.534 132.693 63.802 132.177 63.286C131.661 62.77 130.995 62.512 130.179 62.512C129.387 62.512 128.727 62.77 128.199 63.286C127.683 63.802 127.425 64.534 127.425 65.482V65.644C127.425 66.604 127.683 67.342 128.199 67.858C128.727 68.374 129.387 68.632 130.179 68.632ZM141.188 70.252C140.456 70.252 139.778 70.072 139.154 69.712C138.53 69.352 138.026 68.836 137.642 68.164C137.27 67.48 137.084 66.658 137.084 65.698V65.428C137.084 64.48 137.27 63.664 137.642 62.98C138.014 62.296 138.512 61.774 139.136 61.414C139.76 61.054 140.444 60.874 141.188 60.874C141.764 60.874 142.244 60.946 142.628 61.09C143.024 61.234 143.348 61.42 143.6 61.648C143.852 61.864 144.044 62.092 144.176 62.332H144.464V57.4H146.318V70H144.5V68.74H144.212C143.984 69.124 143.636 69.472 143.168 69.784C142.712 70.096 142.052 70.252 141.188 70.252ZM141.71 68.632C142.514 68.632 143.174 68.374 143.69 67.858C144.218 67.342 144.482 66.604 144.482 65.644V65.482C144.482 64.534 144.224 63.802 143.708 63.286C143.192 62.77 142.526 62.512 141.71 62.512C140.918 62.512 140.258 62.77 139.73 63.286C139.214 63.802 138.956 64.534 138.956 65.482V65.644C138.956 66.604 139.214 67.342 139.73 67.858C140.258 68.374 140.918 68.632 141.71 68.632ZM153.116 70.252C152.216 70.252 151.43 70.066 150.758 69.694C150.086 69.31 149.558 68.776 149.174 68.092C148.802 67.396 148.616 66.592 148.616 65.68V65.464C148.616 64.54 148.802 63.736 149.174 63.052C149.546 62.356 150.062 61.822 150.722 61.45C151.394 61.066 152.168 60.874 153.044 60.874C153.896 60.874 154.64 61.066 155.276 61.45C155.924 61.822 156.428 62.344 156.788 63.016C157.148 63.688 157.328 64.474 157.328 65.374V66.076H150.506C150.53 66.856 150.788 67.48 151.28 67.948C151.784 68.404 152.408 68.632 153.152 68.632C153.848 68.632 154.37 68.476 154.718 68.164C155.078 67.852 155.354 67.492 155.546 67.084L157.076 67.876C156.908 68.212 156.662 68.566 156.338 68.938C156.026 69.31 155.612 69.622 155.096 69.874C154.58 70.126 153.92 70.252 153.116 70.252ZM150.524 64.654H155.438C155.39 63.982 155.15 63.46 154.718 63.088C154.286 62.704 153.722 62.512 153.026 62.512C152.33 62.512 151.76 62.704 151.316 63.088C150.884 63.46 150.62 63.982 150.524 64.654ZM163.231 70.252C162.499 70.252 161.821 70.072 161.197 69.712C160.573 69.352 160.069 68.836 159.685 68.164C159.313 67.48 159.127 66.658 159.127 65.698V65.428C159.127 64.48 159.313 63.664 159.685 62.98C160.057 62.296 160.555 61.774 161.179 61.414C161.803 61.054 162.487 60.874 163.231 60.874C163.807 60.874 164.287 60.946 164.671 61.09C165.067 61.234 165.391 61.42 165.643 61.648C165.895 61.864 166.087 62.092 166.219 62.332H166.507V57.4H168.361V70H166.543V68.74H166.255C166.027 69.124 165.679 69.472 165.211 69.784C164.755 70.096 164.095 70.252 163.231 70.252ZM163.753 68.632C164.557 68.632 165.217 68.374 165.733 67.858C166.261 67.342 166.525 66.604 166.525 65.644V65.482C166.525 64.534 166.267 63.802 165.751 63.286C165.235 62.77 164.569 62.512 163.753 62.512C162.961 62.512 162.301 62.77 161.773 63.286C161.257 63.802 160.999 64.534 160.999 65.482V65.644C160.999 66.604 161.257 67.342 161.773 67.858C162.301 68.374 162.961 68.632 163.753 68.632ZM176.705 73.6V71.98H181.655C181.991 71.98 182.159 71.8 182.159 71.44V68.704H181.871C181.763 68.944 181.595 69.178 181.367 69.406C181.151 69.622 180.857 69.802 180.485 69.946C180.113 70.09 179.645 70.162 179.081 70.162C178.409 70.162 177.809 70.012 177.281 69.712C176.753 69.412 176.339 68.986 176.039 68.434C175.739 67.882 175.589 67.228 175.589 66.472V61.126H177.443V66.328C177.443 67.096 177.635 67.666 178.019 68.038C178.403 68.398 178.937 68.578 179.621 68.578C180.377 68.578 180.983 68.326 181.439 67.822C181.907 67.318 182.141 66.586 182.141 65.626V61.126H183.995V71.818C183.995 72.358 183.833 72.79 183.509 73.114C183.197 73.438 182.765 73.6 182.213 73.6H176.705ZM190.893 70.252C190.005 70.252 189.213 70.072 188.517 69.712C187.833 69.34 187.293 68.812 186.897 68.128C186.501 67.444 186.303 66.634 186.303 65.698V65.428C186.303 64.492 186.501 63.688 186.897 63.016C187.293 62.332 187.833 61.804 188.517 61.432C189.213 61.06 190.005 60.874 190.893 60.874C191.781 60.874 192.573 61.06 193.269 61.432C193.965 61.804 194.511 62.332 194.907 63.016C195.303 63.688 195.501 64.492 195.501 65.428V65.698C195.501 66.634 195.303 67.444 194.907 68.128C194.511 68.812 193.965 69.34 193.269 69.712C192.573 70.072 191.781 70.252 190.893 70.252ZM190.893 68.596C191.709 68.596 192.369 68.338 192.873 67.822C193.389 67.294 193.647 66.568 193.647 65.644V65.482C193.647 64.558 193.395 63.838 192.891 63.322C192.387 62.794 191.721 62.53 190.893 62.53C190.089 62.53 189.429 62.794 188.913 63.322C188.409 63.838 188.157 64.558 188.157 65.482V65.644C188.157 66.568 188.409 67.294 188.913 67.822C189.429 68.338 190.089 68.596 190.893 68.596ZM201.211 70.162C200.539 70.162 199.939 70.012 199.411 69.712C198.883 69.412 198.469 68.986 198.169 68.434C197.869 67.882 197.719 67.222 197.719 66.454V61.126H199.573V66.328C199.573 67.096 199.765 67.666 200.149 68.038C200.533 68.398 201.067 68.578 201.751 68.578C202.507 68.578 203.113 68.326 203.569 67.822C204.037 67.306 204.271 66.568 204.271 65.608V61.126H206.125V70H204.307V68.668H204.019C203.851 69.028 203.551 69.37 203.119 69.694C202.687 70.006 202.051 70.162 201.211 70.162ZM208.866 70V61.126H210.684V62.17H210.972C211.116 61.798 211.344 61.528 211.656 61.36C211.98 61.18 212.376 61.09 212.844 61.09H213.906V62.764H212.772C212.172 62.764 211.68 62.932 211.296 63.268C210.912 63.592 210.72 64.096 210.72 64.78V70H208.866ZM224.537 70.252C223.685 70.252 222.911 70.072 222.215 69.712C221.531 69.352 220.985 68.83 220.577 68.146C220.181 67.462 219.983 66.64 219.983 65.68V65.446C219.983 64.486 220.181 63.67 220.577 62.998C220.985 62.314 221.531 61.792 222.215 61.432C222.911 61.06 223.685 60.874 224.537 60.874C225.389 60.874 226.115 61.03 226.715 61.342C227.315 61.654 227.795 62.068 228.155 62.584C228.527 63.1 228.767 63.67 228.875 64.294L227.075 64.672C227.015 64.276 226.889 63.916 226.697 63.592C226.505 63.268 226.235 63.01 225.887 62.818C225.539 62.626 225.101 62.53 224.573 62.53C224.057 62.53 223.589 62.65 223.169 62.89C222.761 63.118 222.437 63.454 222.197 63.898C221.957 64.33 221.837 64.858 221.837 65.482V65.644C221.837 66.268 221.957 66.802 222.197 67.246C222.437 67.69 222.761 68.026 223.169 68.254C223.589 68.482 224.057 68.596 224.573 68.596C225.353 68.596 225.947 68.398 226.355 68.002C226.763 67.594 227.021 67.078 227.129 66.454L228.929 66.868C228.785 67.48 228.527 68.044 228.155 68.56C227.795 69.076 227.315 69.49 226.715 69.802C226.115 70.102 225.389 70.252 224.537 70.252ZM233.821 70.252C233.185 70.252 232.615 70.144 232.111 69.928C231.619 69.712 231.223 69.394 230.923 68.974C230.635 68.554 230.491 68.044 230.491 67.444C230.491 66.832 230.635 66.328 230.923 65.932C231.223 65.524 231.625 65.218 232.129 65.014C232.645 64.81 233.227 64.708 233.875 64.708H236.575V64.132C236.575 63.616 236.419 63.202 236.107 62.89C235.795 62.578 235.315 62.422 234.667 62.422C234.031 62.422 233.545 62.572 233.209 62.872C232.873 63.172 232.651 63.562 232.543 64.042L230.815 63.484C230.959 63.004 231.187 62.572 231.499 62.188C231.823 61.792 232.249 61.474 232.777 61.234C233.305 60.994 233.941 60.874 234.685 60.874C235.837 60.874 236.743 61.168 237.403 61.756C238.063 62.344 238.393 63.178 238.393 64.258V67.912C238.393 68.272 238.561 68.452 238.897 68.452H239.653V70H238.267C237.847 70 237.505 69.892 237.241 69.676C236.977 69.46 236.845 69.166 236.845 68.794V68.74H236.575C236.479 68.92 236.335 69.13 236.143 69.37C235.951 69.61 235.669 69.82 235.297 70C234.925 70.168 234.433 70.252 233.821 70.252ZM234.091 68.722C234.835 68.722 235.435 68.512 235.891 68.092C236.347 67.66 236.575 67.072 236.575 66.328V66.148H233.983C233.491 66.148 233.095 66.256 232.795 66.472C232.495 66.676 232.345 66.982 232.345 67.39C232.345 67.798 232.501 68.122 232.813 68.362C233.125 68.602 233.551 68.722 234.091 68.722ZM241.456 70V61.126H243.274V62.17H243.562C243.706 61.798 243.934 61.528 244.246 61.36C244.57 61.18 244.966 61.09 245.434 61.09H246.496V62.764H245.362C244.762 62.764 244.27 62.932 243.886 63.268C243.502 63.592 243.31 64.096 243.31 64.78V70H241.456ZM251.772 70.252C251.04 70.252 250.362 70.072 249.738 69.712C249.114 69.352 248.61 68.836 248.226 68.164C247.854 67.48 247.668 66.658 247.668 65.698V65.428C247.668 64.48 247.854 63.664 248.226 62.98C248.598 62.296 249.096 61.774 249.72 61.414C250.344 61.054 251.028 60.874 251.772 60.874C252.348 60.874 252.828 60.946 253.212 61.09C253.608 61.234 253.932 61.42 254.184 61.648C254.436 61.864 254.628 62.092 254.76 62.332H255.048V57.4H256.902V70H255.084V68.74H254.796C254.568 69.124 254.22 69.472 253.752 69.784C253.296 70.096 252.636 70.252 251.772 70.252ZM252.294 68.632C253.098 68.632 253.758 68.374 254.274 67.858C254.802 67.342 255.066 66.604 255.066 65.644V65.482C255.066 64.534 254.808 63.802 254.292 63.286C253.776 62.77 253.11 62.512 252.294 62.512C251.502 62.512 250.842 62.77 250.314 63.286C249.798 63.802 249.54 64.534 249.54 65.482V65.644C249.54 66.604 249.798 67.342 250.314 67.858C250.842 68.374 251.502 68.632 252.294 68.632ZM267.892 70.252C267.16 70.252 266.482 70.072 265.858 69.712C265.234 69.352 264.73 68.836 264.346 68.164C263.974 67.48 263.788 66.658 263.788 65.698V65.428C263.788 64.48 263.974 63.664 264.346 62.98C264.718 62.296 265.216 61.774 265.84 61.414C266.464 61.054 267.148 60.874 267.892 60.874C268.468 60.874 268.948 60.946 269.332 61.09C269.728 61.234 270.052 61.42 270.304 61.648C270.556 61.864 270.748 62.092 270.88 62.332H271.168V57.4H273.022V70H271.204V68.74H270.916C270.688 69.124 270.34 69.472 269.872 69.784C269.416 70.096 268.756 70.252 267.892 70.252ZM268.414 68.632C269.218 68.632 269.878 68.374 270.394 67.858C270.922 67.342 271.186 66.604 271.186 65.644V65.482C271.186 64.534 270.928 63.802 270.412 63.286C269.896 62.77 269.23 62.512 268.414 62.512C267.622 62.512 266.962 62.77 266.434 63.286C265.918 63.802 265.66 64.534 265.66 65.482V65.644C265.66 66.604 265.918 67.342 266.434 67.858C266.962 68.374 267.622 68.632 268.414 68.632ZM279.819 70.252C278.919 70.252 278.133 70.066 277.461 69.694C276.789 69.31 276.261 68.776 275.877 68.092C275.505 67.396 275.319 66.592 275.319 65.68V65.464C275.319 64.54 275.505 63.736 275.877 63.052C276.249 62.356 276.765 61.822 277.425 61.45C278.097 61.066 278.871 60.874 279.747 60.874C280.599 60.874 281.343 61.066 281.979 61.45C282.627 61.822 283.131 62.344 283.491 63.016C283.851 63.688 284.031 64.474 284.031 65.374V66.076H277.209C277.233 66.856 277.491 67.48 277.983 67.948C278.487 68.404 279.111 68.632 279.855 68.632C280.551 68.632 281.073 68.476 281.421 68.164C281.781 67.852 282.057 67.492 282.249 67.084L283.779 67.876C283.611 68.212 283.365 68.566 283.041 68.938C282.729 69.31 282.315 69.622 281.799 69.874C281.283 70.126 280.623 70.252 279.819 70.252ZM277.227 64.654H282.141C282.093 63.982 281.853 63.46 281.421 63.088C280.989 62.704 280.425 62.512 279.729 62.512C279.033 62.512 278.463 62.704 278.019 63.088C277.587 63.46 277.323 63.982 277.227 64.654ZM289.276 70C288.736 70 288.304 69.838 287.98 69.514C287.668 69.19 287.512 68.758 287.512 68.218V62.692H285.064V61.126H287.512V58.192H289.366V61.126H292.012V62.692H289.366V67.894C289.366 68.254 289.534 68.434 289.87 68.434H291.724V70H289.276ZM296.927 70.252C296.291 70.252 295.721 70.144 295.217 69.928C294.725 69.712 294.329 69.394 294.029 68.974C293.741 68.554 293.597 68.044 293.597 67.444C293.597 66.832 293.741 66.328 294.029 65.932C294.329 65.524 294.731 65.218 295.235 65.014C295.751 64.81 296.333 64.708 296.981 64.708H299.681V64.132C299.681 63.616 299.525 63.202 299.213 62.89C298.901 62.578 298.421 62.422 297.773 62.422C297.137 62.422 296.651 62.572 296.315 62.872C295.979 63.172 295.757 63.562 295.649 64.042L293.921 63.484C294.065 63.004 294.293 62.572 294.605 62.188C294.929 61.792 295.355 61.474 295.883 61.234C296.411 60.994 297.047 60.874 297.791 60.874C298.943 60.874 299.849 61.168 300.509 61.756C301.169 62.344 301.499 63.178 301.499 64.258V67.912C301.499 68.272 301.667 68.452 302.003 68.452H302.759V70H301.373C300.953 70 300.611 69.892 300.347 69.676C300.083 69.46 299.951 69.166 299.951 68.794V68.74H299.681C299.585 68.92 299.441 69.13 299.249 69.37C299.057 69.61 298.775 69.82 298.403 70C298.031 70.168 297.539 70.252 296.927 70.252ZM297.197 68.722C297.941 68.722 298.541 68.512 298.997 68.092C299.453 67.66 299.681 67.072 299.681 66.328V66.148H297.089C296.597 66.148 296.201 66.256 295.901 66.472C295.601 66.676 295.451 66.982 295.451 67.39C295.451 67.798 295.607 68.122 295.919 68.362C296.231 68.602 296.657 68.722 297.197 68.722ZM304.561 70V61.126H306.415V70H304.561ZM305.497 59.92C305.137 59.92 304.831 59.806 304.579 59.578C304.339 59.338 304.219 59.032 304.219 58.66C304.219 58.288 304.339 57.988 304.579 57.76C304.831 57.52 305.137 57.4 305.497 57.4C305.869 57.4 306.175 57.52 306.415 57.76C306.655 57.988 306.775 58.288 306.775 58.66C306.775 59.032 306.655 59.338 306.415 59.578C306.175 59.806 305.869 59.92 305.497 59.92ZM309.167 70V57.4H311.021V70H309.167ZM317.408 70.252C316.28 70.252 315.344 70 314.6 69.496C313.856 68.992 313.4 68.23 313.232 67.21L314.96 66.796C315.056 67.288 315.218 67.678 315.446 67.966C315.674 68.254 315.956 68.458 316.292 68.578C316.64 68.698 317.012 68.758 317.408 68.758C317.996 68.758 318.446 68.644 318.758 68.416C319.082 68.188 319.244 67.894 319.244 67.534C319.244 67.174 319.094 66.91 318.794 66.742C318.494 66.574 318.05 66.436 317.462 66.328L316.85 66.22C316.25 66.112 315.704 65.956 315.212 65.752C314.72 65.548 314.33 65.266 314.042 64.906C313.754 64.546 313.61 64.084 313.61 63.52C313.61 62.68 313.922 62.032 314.546 61.576C315.17 61.108 315.998 60.874 317.03 60.874C318.026 60.874 318.842 61.102 319.478 61.558C320.126 62.002 320.546 62.608 320.738 63.376L319.01 63.862C318.902 63.322 318.674 62.944 318.326 62.728C317.978 62.5 317.546 62.386 317.03 62.386C316.526 62.386 316.13 62.482 315.842 62.674C315.554 62.854 315.41 63.112 315.41 63.448C315.41 63.808 315.548 64.072 315.824 64.24C316.112 64.408 316.496 64.534 316.976 64.618L317.606 64.726C318.242 64.834 318.824 64.984 319.352 65.176C319.88 65.368 320.294 65.644 320.594 66.004C320.906 66.364 321.062 66.844 321.062 67.444C321.062 68.332 320.732 69.022 320.072 69.514C319.412 70.006 318.524 70.252 317.408 70.252Z" fill="#8F8694"/>
<path d="M103.248 28V11.144H97.2277V8.4H112.292V11.144H106.272V28H103.248ZM118.455 28V8.4H121.479V16.8H129.711V8.4H132.735V28H129.711V19.544H121.479V28H118.455ZM138.796 28L144.396 8.4H149.716L155.288 28H152.18L150.892 23.38H143.22L141.932 28H138.796ZM143.976 20.58H150.136L147.28 10.276H146.832L143.976 20.58ZM161.366 28V8.4H167.19L172.51 25.984H172.958V8.4H175.954V28H170.13L164.81 10.388H164.362V28H161.366ZM183.464 28V8.4H186.488V16.548H186.936L194.244 8.4H198.192L189.344 18.06L198.5 28H194.44L186.936 19.684H186.488V28H183.464ZM219.521 28V20.888L212.717 8.4H216.133L220.837 17.276H221.257L225.961 8.4H229.377L222.573 20.888V28H219.521ZM241.727 28.392C239.319 28.392 237.406 27.72 235.987 26.376C234.569 25.0133 233.859 23.0533 233.859 20.496V15.904C233.859 13.3467 234.569 11.396 235.987 10.052C237.406 8.68933 239.319 8.008 241.727 8.008C244.135 8.008 246.049 8.68933 247.467 10.052C248.905 11.396 249.623 13.3467 249.623 15.904V20.496C249.623 23.0533 248.905 25.0133 247.467 26.376C246.049 27.72 244.135 28.392 241.727 28.392ZM241.727 25.676C243.277 25.676 244.471 25.228 245.311 24.332C246.151 23.4173 246.571 22.176 246.571 20.608V15.792C246.571 14.224 246.151 12.992 245.311 12.096C244.471 11.1813 243.277 10.724 241.727 10.724C240.215 10.724 239.03 11.1813 238.171 12.096C237.313 12.992 236.883 14.224 236.883 15.792V20.608C236.883 22.176 237.313 23.4173 238.171 24.332C239.03 25.228 240.215 25.676 241.727 25.676ZM263.961 28.392C262.412 28.392 261.077 28.112 259.957 27.552C258.856 26.992 257.997 26.1893 257.381 25.144C256.784 24.08 256.485 22.792 256.485 21.28V8.4H259.537V21.364C259.537 22.7453 259.92 23.8093 260.685 24.556C261.451 25.3027 262.543 25.676 263.961 25.676C265.38 25.676 266.472 25.3027 267.237 24.556C268.003 23.8093 268.385 22.7453 268.385 21.364V8.4H271.409V21.28C271.409 22.792 271.111 24.08 270.513 25.144C269.916 26.1893 269.057 26.992 267.937 27.552C266.817 28.112 265.492 28.392 263.961 28.392ZM279.114 22.148V8.4H282.054V22.148H279.114ZM280.598 28.392C279.945 28.392 279.394 28.1773 278.946 27.748C278.517 27.3187 278.302 26.768 278.302 26.096C278.302 25.424 278.517 24.8827 278.946 24.472C279.394 24.0427 279.945 23.828 280.598 23.828C281.251 23.828 281.793 24.0427 282.222 24.472C282.67 24.9013 282.894 25.4427 282.894 26.096C282.894 26.768 282.67 27.3187 282.222 27.748C281.793 28.1773 281.251 28.392 280.598 28.392Z" fill="#21092F"/>
</g>
<defs>
<clipPath id="clip0_0_310">
<rect width="381" height="75" fill="white"/>
</clipPath>
</defs>
</svg>
